<?xml version="1.0" encoding="UTF-8"?><svg id="Ebene_1" xmlns="http://www.w3.org/2000/svg" viewBox="0 0 850.39 850.39"><path d="M709.31,140.91c-42.62-32-90.55-45.1-143.73-34.12-41.02,8.46-75.77,29.14-106.79,56.46-11.52,10.14-21.9,21.57-31.92,31.54-18.33-16.13-35.27-32.67-53.88-47.06-32.57-25.18-69.2-42.77-110.89-44.23-81.03-2.85-139.67,35.94-179.13,104.17-33.6,58.09-31.41,120.23-13.38,182.74,15.67,54.32,46.98,99.63,83.33,141.77,75.79,87.83,168.15,155.14,267.09,214.14,2.86,1.7,8.68,1.38,11.6-.44,28.9-18.07,57.98-35.92,86.03-55.26,72.06-49.68,138.27-105.98,193.72-174.24,43.02-52.98,74.38-111.2,81.02-180.38,7.68-79.97-18.08-146.3-83.07-195.09ZM566.66,195.55c5.69-14.46,14.77-26.07,28.83-33.4,20-10.42,41.85-1.34,46.68,21.52,4.94,23.33-3.2,43.27-19.23,59.86-8.59,8.89-18.02,13.83-30.43,13.53-13.41.54-25.76-10.23-29.33-25.53-2.91-12.45-1.09-24.36,3.48-35.98ZM484.58,223.03c3.19-10.54,9.18-18.88,19.21-24.06,9.52-4.91,22.6-2.63,30,5.09,7.56,7.88,10.71,17.37,11.24,29.86-.86,13.79-4.94,27.7-18.88,37.18-11.53,7.85-26.87,4.69-34.94-5.43-10.28-12.92-11.22-27.4-6.63-42.65ZM658.88,416.07c-8.81,17.05-24.46,20.8-40.91,14.44-11.5-4.44-21.42-11.5-31.44-18.44-7.57-5.23-14.91-10.87-22.92-15.31-5.63-3.12-12.17-4.66-18.38-6.65-14.6-4.66-29.86-7.2-43.71-14.2-10.61-5.37-18.87-12.67-20.46-25.14-.78-6.02.57-11.96,3.17-17.49,8.1-17.36,20.55-30.96,36.03-42.04,12.44-8.9,25.87-15.77,40.75-19.28,8.21-1.93,16.7-2.7,25.06-3.98,16.29.89,31.01,5.45,44.03,15.05,15.9,11.71,25.81,27.6,32.14,46.09,4.46,13.06,6.86,26.43,6.81,40.16-.07,16.27-2.56,32.08-10.17,46.81ZM670.46,293.79c-13.76,0-24.79-9.59-28.78-23.64-3.85-13.57-1.83-26.71,3.56-39.46,5.15-12.14,12.7-22.43,24.02-29.53,11.45-7.19,23.4-9.55,35.85-2.48,8.18,4.65,13.17,12.08,14.89,21.03,5.03,26.16-4.16,47.5-23.81,64.59-7.29,6.34-16.06,9.91-25.73,9.49ZM751.13,324.22c-.94,13.69-7.66,24.31-17.87,32.9-8.29,6.99-17.86,10.64-28.9,9.86-11.97-.86-22.79-10.59-23.91-23.05-1.6-17.87,6.71-30.65,20.23-40.98,6.43-4.91,13.68-7.46,21.71-7.93,17.05-.98,29.85,11.72,28.74,29.2Z"/></svg>