<?xml version="1.0" encoding="UTF-8"?><svg id="Ebene_1" xmlns="http://www.w3.org/2000/svg" viewBox="0 0 850.39 850.39"><path d="M782.51,255.87c-19.77-11.24-39.62-22.34-59.44-33.53-95.14-53.78-190.33-107.5-285.35-161.48-8.85-5.02-16.24-5.19-25.04.06-20.06,11.96-40.59,23.11-60.93,34.59-94.38,53.3-188.75,106.59-283.12,159.91-11.22,6.34-14.69,14.71-9.76,23.19,4.99,8.55,13.6,9.7,25.09,3.3,8.06-4.51,16.09-9.05,25.87-14.55v500.91c0,3.3-.1,6.6.14,9.88.63,8.47,5.63,13.88,13.97,14.94,3.25.41,6.59.22,9.88.22h582.78c20.25,0,23.98-3.75,23.98-24.16v-501.68c10.11,5.68,18.43,10.4,26.77,15.05,10.66,5.95,19.56,4.52,24.25-3.83,4.71-8.37,1.43-16.85-9.09-22.82ZM517.16,757.1c0,1.46-.29,2.91-.54,5.1h-182.74c-.24-2.04-.63-3.74-.63-5.44,0-44.96-.33-89.91.16-134.87.4-37.34,24.19-70.42,58.99-83.66,34.54-13.13,73.8-4.37,99.24,22.42,16.1,16.96,25.16,37.2,25.35,60.7.35,45.25.16,90.5.16,135.75ZM566.81,383.95c12.06,10.26,15.26,25.67,8.08,38.82-6.94,12.71-21.52,18.86-35.18,14.82-15.05-4.46-23.52-17.42-21.99-33.7,1.13-12.1-5.03-18.67-18.21-18.72-35.36-.13-70.72-.05-106.09-.05-13.78,0-27.56-.08-41.35.02-14.34.1-19.54,5.56-19.08,19.68.55,16.53-8.28,29.07-23.28,33.07-13.56,3.6-28.22-3.14-34.72-15.98-6.77-13.37-3.27-27.77,9.35-38.58,11.12-9.52,10.8-17.59-1.15-28.02-11.11-9.71-14.54-23.98-8.79-36.57,5.33-11.68,18.3-19.32,30.56-18.03,14.04,1.49,24.98,11.54,27.55,25.61.52,2.89.43,5.96.17,8.9-1.08,12.13,4.6,18.93,16.82,19.02,25.17.19,50.34.06,75.51.06,24.27.01,48.55.05,72.82-.01,14.99-.02,19.94-5.16,19.5-20.01-.47-16.1,8.27-28.49,22.86-32.44,13.84-3.73,28.23,2.61,34.93,15.4,6.98,13.32,3.7,27.81-8.76,38.68-11.48,10.03-11.37,17.98.43,28.02Z"/></svg>