<?xml version="1.0" encoding="UTF-8"?><svg id="Ebene_1" xmlns="http://www.w3.org/2000/svg" viewBox="0 0 850.39 850.39"><defs><style>.cls-1{fill:#1d1d1b;}.cls-2{fill:#040404;}</style></defs><path class="cls-1" d="M375.24,648.39c3.37,15.13,12.45,26.03,27.9,29.96-15.26-4.58-24.5-14.91-27.9-29.96Z"/><path class="cls-2" d="M660.14,558.61c-10.29-13.69-16.9-29.13-20.73-45.81-5.23-22.76-12.12-45.33-25.62-64.31-10.92-15.36-9.83-27.38-2.57-44.19,32.19-74.56,54.53-115.48,65.56-196.06,4.5-32.86,5.95-66.03-3.53-98.57-7.27-24.97-20.59-44.51-46.79-52.99-3.4-1.11-7.92.81-10.31-3.33h-25.4c-48.01,17.57-64.64,59.57-78.06,102.86-21.63,69.75-29.67,105.04-32.41,177.77-.53,14.1-.57,14.3-14.41,12.23-17.26-2.57-34.48-2.11-51.58.77-6.55,1.11-8.14-.25-8.38-7.01-2.24-61.72-8.53-86.23-22.6-146.48-8.17-35.03-18.61-69.25-38.31-99.93-12.73-19.82-29.58-34.04-52.66-40.22h-27.51c-.22,1.68-1.45,2.13-2.86,2.53-28.87,8.45-42.95,29.66-50.35,57.26-9.37,34.95-6.67,70.1-1.25,104.94,12.82,82.36,36.4,124.95,70.44,201.09,2.71,6.07,3.02,10.31-1.04,16.17-15.37,22.18-25.96,46.64-32.13,72.95-4.13,17.63-10.03,34.56-21.1,49.09-18.47,24.23-27.77,51.18-25.29,81.76,0,0-3.64,43.27,45.67,83.92,10.39,8.56,22.51,14.39,35.6,17.9l47.21,13.75h.02c10.42,4.82,20.1,11.08,30.47,15.98,59.57,28.11,118.23,25.88,175.9-5.43,9.21-5.01,18.32-9.99,28.11-13.82.01,0,.02,0,.03,0l35.58-9.37c13.39-3.42,25.86-9.14,36.96-17.36,2.37-1.75,4.83-3.37,7.4-4.8,8.65-4.81,32.47-23.18,40.5-82.44,3.95-29.2-6.99-55.45-24.57-78.86ZM316.07,563.94c-3.05,11.31-6.31,22.56-10.51,33.51-1.29,3.37-2.78,6.69-4.43,9.9-2.8,5.44-7.51,8.17-13.52,8.56-6.6.44-12.5-1.61-17.54-5.81-6.6-5.52-9.45-12.76-8.95-21.28.28-4.63,2.11-8.65,5.63-11.78,1.76-1.56,3.85-2.57,5.99-3.48,5.71-2.43,11.63-4.31,17.6-5.94,7.87-2.14,15.77-4.12,23.67-6.13.51-.13,1.09.04,1.64.07l.53.58c-.04.61.04,1.25-.12,1.82ZM346.55,543.02c-.77,6.32-4.61,10.49-11.44,9.8-7.43-.75-9.61-5.87-9.44-12.76.5-19.49,18.28-36.05,38.52-35.71,19.26.33,35.87,15.66,37.55,34.77.59,6.64-1.25,12.27-8.6,13.51-7.1,1.2-11.33-2.4-12.31-9.63-1.33-9.83-6.07-16.81-16.71-16.98-11.05-.17-16.26,6.36-17.57,17.01ZM514.67,655.08c-.49,10.06-5.7,20.14-13.74,27.27-6.83,6.07-14.65,9.66-23.76,8.81-24.3-2.27-32.55-7.33-32.55-7.33,0,0-26.45,11.68-43.49,7.33-16.22-4.13-25.75-15.58-29.29-31.46-.24-1.06-.45-2.14-.63-3.24-1.25-7.45.76-14.01,9.11-15.13,7.75-1.04,10.83,4.07,11.99,11.48,1.86,11.84,9.44,18.55,19.47,18.53,9.28-.02,17.9-6.75,19.83-15.93,1.22-5.79,1.13-10.32-6.71-12.49-15.68-4.33-28.69-13.34-37.83-27.09-12.9-19.44-6.27-36.68,16.32-42.71.51-.14,1.03-.27,1.55-.4.71-.17,1.42-.34,2.13-.49.41-.09.82-.18,1.23-.26.2-.04.41-.09.62-.12.62-.12,1.23-.24,1.85-.35,1.86-.33,3.72-.61,5.58-.83.62-.08,1.23-.15,1.85-.22h0c.62-.07,1.24-.13,1.87-.19.58-.06,1.15-.1,1.73-.15s1.15-.09,1.73-.13c1.34-.09,2.69-.17,4.02-.23.49-.03.98-.05,1.46-.07,1.39-.06,2.78-.1,4.17-.14,1.67-.04,3.34-.07,5.02-.09,1.67-.03,3.35-.04,5.02-.06,2.51.03,5.02.06,7.53.1.84.01,1.67.04,2.51.06,1.14.03,2.27.07,3.39.12.57.02,1.14.04,1.7.07.56.02,1.13.05,1.69.09.45.02.9.04,1.35.08,2.08.13,4.16.3,6.23.52.52.05,1.04.11,1.56.17.79.09,1.57.2,2.35.31.72.1,1.43.2,2.14.32.57.09,1.14.2,1.7.3.51.09,1.03.19,1.54.29,2.05.41,4.09.88,6.12,1.45,21.9,6.07,28.37,23.22,15.88,42.29-9.04,13.8-22.09,22.66-37.68,27.35-6.35,1.9-8.58,4.44-7.07,11.09,2.39,10.56,9.34,17.14,19.5,17.34,9.79.19,17.58-6.6,19.64-17.14.2-1.03.05-2.13.26-3.16,1.27-6.3,4.87-10.49,11.57-9.79,6.57.69,9.42,5.14,9.53,11.78.01.68,0,1.37-.03,2.06ZM547.99,552.62c-7.33.95-11.25-3.24-12.06-10.19-1.2-10.28-6.62-16.43-17.03-16.42-10.5,0-15.82,6.42-16.96,16.56-.81,7.15-4.85,11.13-11.96,10.27-7.31-.88-9.5-6.26-9.17-13.09.9-18.99,18.44-35.37,38.05-35.41,19.81-.04,37.3,16.17,38.14,35.19.3,6.8-1.55,12.14-9,13.1ZM627.85,610.09c-5.04,4.21-10.94,6.25-17.54,5.81-6.01-.4-10.72-3.12-13.52-8.56-1.65-3.21-3.14-6.52-4.43-9.9-4.2-10.94-7.46-22.19-10.51-33.51-.16-.57-.08-1.22-.12-1.82l.53-.58c.55-.03,1.14-.2,1.64-.07,7.9,2.01,15.8,4,23.67,6.13,5.98,1.63,11.89,3.51,17.6,5.94,2.14.91,4.23,1.92,5.99,3.48,3.52,3.13,5.36,7.15,5.63,11.78.5,8.52-2.35,15.77-8.95,21.28Z"/><path class="cls-2" d="M375.24,648.39c3.37,15.13,12.45,26.03,27.9,29.96-15.26-4.58-24.5-14.91-27.9-29.96Z"/></svg>