<?xml version="1.0" encoding="UTF-8"?><svg id="Ebene_1" xmlns="http://www.w3.org/2000/svg" viewBox="0 0 850.39 850.39"><path d="M317.86,461.82c-20.55.28-37.69-16.34-38.12-36.97-.42-20.13,16.89-38.01,36.99-38.2,20.39-.19,37.9,16.82,38.15,37.06.25,20.49-16.59,37.83-37.02,38.11Z"/><path d="M537.97,555.7c-24.87,36.92-75.25,42.81-107.39,12.24-1.99-1.9-3.2-4.63-5.38-7.87-19.2,21.56-40.89,30.99-67.74,26.43-20.1-3.42-35.09-14.47-46.89-30.52-6.71-9.13-8.14-18.59,1.85-25.79,9.71-7,18.29-3.69,25.16,5.79,9.47,13.09,21.83,20.02,38.63,17.03,15.34-2.73,23.46-13.08,27.24-26.86,1.11-4.06-1.38-9.78-3.67-13.93-2.65-4.78-7.72-8.23-10.29-13.04-6.69-12.55-2.43-22.97,11.64-24.96,13.7-1.93,27.95-1.96,41.72-.5,6.41.69,15.95,5.81,17.37,10.83,1.77,6.19-1.66,15.69-5.96,21.43-11.76,15.73-12.93,21.6-2.5,34.93,9.68,12.37,27.43,17.06,41.6,9.47,6.73-3.6,12.58-9.51,17.67-15.39,7.22-8.33,15.42-11.6,24.48-5.08,9.71,6.98,8.95,16.16,2.47,25.79Z"/><path d="M568.65,423.7c.31,20.37-16.81,38.03-36.98,38.14-20.59.11-37.8-16.57-38.16-36.98-.36-20.22,16.9-38.04,37.02-38.2,20.59-.17,37.81,16.57,38.12,37.05Z"/><path d="M425.2,40.6c-203.51,0-368.5,164.98-368.5,368.5s164.99,368.5,368.5,368.5,368.5-164.99,368.5-368.5S628.72,40.6,425.2,40.6ZM673.14,500.31c-24.41,109.94-116.63,186.76-229.29,191.72-99.32,4.36-180.76-30.05-236.4-115.48-27.63-42.43-36.41-90.72-40.05-140.2-1.41-19.14-2.11-38.33-2.89-53.16.95-65.07,6.92-124.92,30.01-181.87,9.07-22.38,22.61-29.27,42.66-16.22,26.51,17.24,50.93,37.86,75.2,58.27,8.12,6.83,14.57,8.76,24.87,6.52,58.88-12.85,117.97-13.11,176.83.39,9.2,2.12,15.34.42,22.47-5.99,19.11-17.2,39.03-33.52,59.14-49.53,6.49-5.16,14.28-9.05,22-12.23,17.28-7.11,30.26-2.78,35.85,15.12,10,32.02,20.38,64.39,25.47,97.4,10.55,68.49,9.17,137.5-5.89,205.27Z"/></svg>